<?xml version="1.0" encoding="utf-8"?>
<!-- Generator: Adobe Illustrator 26.4.1, SVG Export Plug-In . SVG Version: 6.00 Build 0)  -->
<svg version="1.1" id="Layer_1" xmlns="http://www.w3.org/2000/svg" xmlns:xlink="http://www.w3.org/1999/xlink" x="0px" y="0px"
	 viewBox="0 0 320 150" style="enable-background:new 0 0 320 150;" xml:space="preserve">
<style type="text/css">
	.st0_binocular{fill:#CCCCD1;}
	.st1_binocular{clip-path:url(#SVGID_00000142878397074961742610000004788150928928981144_);}
	.st2_binocular{fill:#002F48;}
	.st3_binocular{fill:#04A2C9;}
	.st4_binocular{fill:#FFFFFF;}
	.st5_binocular{fill:#21C1DC;}
</style>
<g>
	<g>
		<path id="Vector_60_2_binocular" class="st0_binocular" d="M160,140c35.9,0,65-29.1,65-65s-29.1-65-65-65S95,39.1,95,75S124.1,140,160,140z"/>
	</g>
	<g>
		<defs>
			<rect id="SVGID_1_binocular" x="127.34" y="50.34" width="65.31" height="49.33"/>
		</defs>
		<clipPath id="SVGID_00000013190415997981773240000007374647311829677739_">
			<use xlink:href="#SVGID_1_binocular"  style="overflow:visible;"/>
		</clipPath>
		<g style="clip-path:url(#SVGID_00000013190415997981773240000007374647311829677739_);">
			<g>
				<g id="icon_2_2_">
					<path id="Vector_61_2_binocular" class="st2_binocular" d="M162.38,63.76c0-2.49,0.86-4.89,2.44-6.81c1.58-1.92,3.78-3.22,6.22-3.69
						c2.44-0.47,4.97-0.08,7.15,1.12c2.18,1.19,3.88,3.11,4.8,5.41c0.16,0.31,7.96,17.34,8.09,17.67c1.04,2.09,1.59,4.39,1.61,6.72
						c0.02,2.33-0.48,4.64-1.48,6.75c-1,2.11-2.46,3.96-4.28,5.43c-1.82,1.46-3.94,2.5-6.21,3.02c-2.27,0.52-4.64,0.53-6.91,0.01
						c-2.27-0.52-4.4-1.55-6.22-3.01c-1.82-1.46-3.29-3.31-4.29-5.42c-1-2.11-1.51-4.41-1.49-6.75
						C161.81,83.94,162.38,63.83,162.38,63.76z"/>
					<path id="Vector_62_2_binocular" class="st2_binocular" d="M170.52,62.74c3.43,0,6.2-2.78,6.2-6.2c0-3.43-2.78-6.2-6.2-6.2s-6.2,2.78-6.2,6.2
						C164.32,59.97,167.1,62.74,170.52,62.74z"/>
					<path id="Vector_63_2_binocular" class="st2_binocular" d="M157.62,63.76c0-2.49-0.86-4.89-2.44-6.81c-1.58-1.92-3.78-3.22-6.22-3.69
						c-2.44-0.47-4.97-0.08-7.15,1.12c-2.18,1.19-3.88,3.11-4.8,5.41c-0.16,0.31-7.96,17.34-8.09,17.76
						c-1.04,2.09-1.59,4.39-1.61,6.73c-0.02,2.34,0.49,4.65,1.49,6.76c1,2.11,2.47,3.97,4.29,5.43c1.82,1.46,3.95,2.49,6.23,3.01
						c2.28,0.52,4.64,0.51,6.92-0.02c2.28-0.53,4.4-1.57,6.22-3.04c1.82-1.47,3.28-3.33,4.27-5.45c0.99-2.12,1.49-4.43,1.46-6.77
						C158.19,83.94,157.62,63.83,157.62,63.76z"/>
					<path id="Vector_64_2_binocular" class="st2_binocular" d="M149.48,62.74c3.43,0,6.2-2.78,6.2-6.2c0-3.43-2.78-6.2-6.2-6.2s-6.2,2.78-6.2,6.2
						C143.27,59.97,146.05,62.74,149.48,62.74z"/>
					<path id="Vector_65_2_binocular" class="st3_binocular" d="M142.33,83.3c0.01-1.41,0.21-2.8,0.6-4.15c0-0.34,4.95-19.25,5.06-19.59
						c0.47-2.13,1.56-4.08,3.14-5.59c-1.31-0.56-2.71-0.85-4.13-0.86c-1.42-0.01-2.83,0.27-4.14,0.81
						c-1.31,0.54-2.51,1.34-3.51,2.35c-1,1.01-1.79,2.21-2.33,3.52c-0.16,0.31-7.96,17.34-8.09,17.76c-1.44,3-1.86,6.39-1.21,9.66
						s2.34,6.23,4.82,8.46c2.48,2.23,5.61,3.59,8.92,3.89c3.32,0.3,6.64-0.48,9.48-2.23c-2.56-1.35-4.71-3.37-6.22-5.83
						C143.2,89.02,142.37,86.19,142.33,83.3z"/>
					<path id="Vector_66_2_binocular" class="st3_binocular" d="M177.67,83.3c-0.01-1.41-0.21-2.8-0.6-4.15c0-0.34-4.95-19.25-5.06-19.59
						c-0.47-2.13-1.56-4.08-3.14-5.59c-1.92,0.82-3.56,2.19-4.71,3.93c-1.15,1.74-1.77,3.78-1.78,5.87c0,0-0.56,20.17-0.56,20.45
						c-0.01,2.62,0.66,5.21,1.93,7.5c1.27,2.3,3.11,4.23,5.33,5.62c2.56-1.35,4.71-3.37,6.22-5.83
						C176.8,89.02,177.63,86.19,177.67,83.3z"/>
					<path id="Vector_67_2_binocular" class="st2_binocular" d="M177.2,99.66c8.54,0,15.46-6.92,15.46-15.46s-6.92-15.46-15.46-15.46
						s-15.46,6.92-15.46,15.46S168.66,99.66,177.2,99.66z"/>
					<path id="Vector_68_2_binocular" class="st2_binocular" d="M142.8,99.66c8.54,0,15.46-6.92,15.46-15.46s-6.92-15.46-15.46-15.46
						s-15.46,6.92-15.46,15.46S134.26,99.66,142.8,99.66z"/>
					<path id="Vector_69_2_binocular" class="st4_binocular" d="M142.8,95.89c6.45,0,11.68-5.23,11.68-11.68c0-6.45-5.23-11.68-11.68-11.68
						s-11.68,5.23-11.68,11.68C131.12,90.66,136.35,95.89,142.8,95.89z"/>
					<path id="Vector_70_2_binocular" class="st2_binocular" d="M160,78.11c-0.74,0-1.46,0.22-2.08,0.63c-0.61,0.41-1.09,0.99-1.38,1.68
						c-0.28,0.68-0.36,1.43-0.21,2.16c0.14,0.72,0.5,1.39,1.02,1.91c0.52,0.52,1.19,0.88,1.91,1.02c0.72,0.15,1.48,0.07,2.16-0.21
						c0.68-0.28,1.27-0.76,1.68-1.38c0.41-0.61,0.63-1.34,0.63-2.08c0-0.99-0.39-1.94-1.09-2.64
						C161.94,78.51,160.99,78.11,160,78.11z"/>
					<path id="Vector_71_2_binocular" class="st2_binocular" d="M163.74,68.08h-7.47v13.79h7.47V68.08z"/>
					<path id="Vector_72_2_binocular" class="st2_binocular" d="M160,64.34c-0.74,0-1.46,0.22-2.08,0.63c-0.61,0.41-1.09,0.99-1.38,1.68
						c-0.28,0.68-0.36,1.43-0.21,2.16c0.14,0.72,0.5,1.39,1.02,1.91c0.52,0.52,1.19,0.88,1.91,1.02c0.72,0.15,1.48,0.07,2.16-0.21
						c0.68-0.28,1.27-0.76,1.68-1.38c0.41-0.61,0.63-1.34,0.63-2.08c0-0.99-0.39-1.94-1.09-2.64
						C161.94,64.74,160.99,64.34,160,64.34z"/>
					<path id="Vector_73_2_binocular" class="st4_binocular" d="M160,80.43c-0.29,0-0.56,0.08-0.8,0.23c-0.24,0.16-0.43,0.38-0.54,0.64
						c-0.11,0.26-0.14,0.55-0.09,0.83c0.05,0.28,0.19,0.54,0.39,0.74c0.2,0.2,0.46,0.34,0.74,0.39c0.28,0.05,0.57,0.03,0.83-0.09
						c0.26-0.11,0.49-0.3,0.64-0.54c0.16-0.24,0.24-0.52,0.23-0.8c0-0.19-0.04-0.37-0.11-0.54c-0.07-0.17-0.18-0.33-0.31-0.46
						c-0.13-0.13-0.29-0.23-0.46-0.31C160.37,80.47,160.19,80.43,160,80.43z"/>
					<path id="Vector_74_2_binocular" class="st5_binocular" d="M143.67,74.54c-2.1,0.03-4.14,0.68-5.87,1.86c-1.73,1.18-3.09,2.84-3.89,4.78
						c-0.5,1.23-0.76,2.55-0.76,3.88c0,0.33,0.13,0.64,0.36,0.87c0.23,0.23,0.55,0.36,0.87,0.36c0.33,0,0.64-0.13,0.87-0.36
						c0.23-0.23,0.36-0.55,0.36-0.87c0.05-2.12,0.92-4.14,2.42-5.64c1.5-1.5,3.52-2.36,5.64-2.41c0.33,0,0.64-0.13,0.87-0.36
						c0.23-0.23,0.36-0.55,0.36-0.87c0-0.33-0.13-0.64-0.36-0.87C144.31,74.67,144,74.54,143.67,74.54z"/>
					<path id="Vector_75_2_binocular" class="st4_binocular" d="M177.2,95.89c6.45,0,11.68-5.23,11.68-11.68c0-6.45-5.23-11.68-11.68-11.68
						c-6.45,0-11.68,5.23-11.68,11.68C165.52,90.66,170.75,95.89,177.2,95.89z"/>
					<path id="Vector_76_2_binocular" class="st5_binocular" d="M178.14,74.54c-0.89,0.01-1.77,0.13-2.63,0.36c-2.27,0.58-4.28,1.9-5.72,3.75
						c-1.44,1.85-2.23,4.12-2.24,6.46c-0.02,0.18-0.01,0.35,0.05,0.52c0.05,0.17,0.14,0.33,0.26,0.46c0.12,0.13,0.26,0.24,0.42,0.31
						c0.16,0.07,0.34,0.11,0.51,0.11c0.18,0,0.35-0.04,0.51-0.11c0.16-0.07,0.31-0.18,0.42-0.31c0.12-0.13,0.21-0.29,0.26-0.46
						c0.05-0.17,0.07-0.35,0.05-0.52c0-1.38,0.36-2.73,1.03-3.94c0.75-1.39,1.9-2.52,3.3-3.25c1.16-0.61,2.46-0.93,3.77-0.93
						c0.33,0,0.64-0.13,0.87-0.36c0.23-0.23,0.36-0.55,0.36-0.87c0-0.33-0.13-0.64-0.36-0.87
						C178.78,74.67,178.47,74.54,178.14,74.54z"/>
					<path id="Vector_77_2_binocular" class="st3_binocular" d="M160.65,71.78c0.06,0,0.11-0.01,0.16-0.03c0.05-0.02,0.1-0.05,0.14-0.1
						c0.04-0.04,0.07-0.09,0.09-0.14c0.02-0.05,0.03-0.11,0.03-0.17v-3.43c0-0.11-0.04-0.22-0.12-0.3
						c-0.08-0.08-0.18-0.12-0.29-0.12c-0.06,0-0.11,0.01-0.17,0.03c-0.05,0.02-0.1,0.05-0.14,0.09c-0.04,0.04-0.07,0.09-0.1,0.14
						c-0.02,0.05-0.03,0.11-0.03,0.16v3.43c0,0.12,0.05,0.23,0.13,0.31S160.54,71.78,160.65,71.78z"/>
					<path id="Vector_78_2_binocular" class="st3_binocular" d="M161.96,71.78c0.06,0,0.11-0.01,0.16-0.03c0.05-0.02,0.1-0.05,0.14-0.1
						c0.04-0.04,0.07-0.09,0.09-0.14c0.02-0.05,0.03-0.11,0.03-0.17v-3.43c0-0.11-0.04-0.22-0.12-0.3
						c-0.08-0.08-0.18-0.12-0.29-0.12c-0.06,0-0.11,0.01-0.17,0.03c-0.05,0.02-0.1,0.05-0.14,0.09c-0.04,0.04-0.07,0.09-0.1,0.14
						c-0.02,0.05-0.03,0.11-0.03,0.16v3.43c0,0.12,0.05,0.23,0.13,0.31S161.84,71.78,161.96,71.78z"/>
					<path id="Vector_79_2_binocular" class="st3_binocular" d="M158.04,71.78c0.12,0,0.23-0.05,0.31-0.13s0.13-0.19,0.13-0.31v-3.43
						c0-0.06-0.01-0.11-0.03-0.16c-0.02-0.05-0.05-0.1-0.1-0.14c-0.04-0.04-0.09-0.07-0.14-0.09c-0.05-0.02-0.11-0.03-0.17-0.03
						c-0.05,0-0.11,0.01-0.16,0.03c-0.05,0.02-0.1,0.05-0.14,0.09c-0.04,0.04-0.07,0.09-0.09,0.14c-0.02,0.05-0.03,0.11-0.03,0.16
						v3.43c0,0.06,0.01,0.11,0.03,0.17c0.02,0.05,0.05,0.1,0.09,0.14c0.04,0.04,0.09,0.07,0.14,0.1
						C157.93,71.77,157.98,71.78,158.04,71.78z"/>
					<path id="Vector_80_2_binocular" class="st3_binocular" d="M159.35,71.78c0.12,0,0.23-0.05,0.31-0.13s0.13-0.19,0.13-0.31v-3.43
						c0-0.06-0.01-0.11-0.03-0.16c-0.02-0.05-0.05-0.1-0.1-0.14c-0.04-0.04-0.09-0.07-0.14-0.09c-0.05-0.02-0.11-0.03-0.17-0.03
						c-0.11,0-0.22,0.04-0.29,0.12c-0.08,0.08-0.12,0.19-0.12,0.3v3.43c0,0.06,0.01,0.11,0.03,0.17c0.02,0.05,0.05,0.1,0.09,0.14
						c0.04,0.04,0.09,0.07,0.14,0.1C159.23,71.77,159.29,71.78,159.35,71.78z"/>
				</g>
			</g>
		</g>
	</g>
</g>
</svg>
