<?xml version="1.0" encoding="utf-8"?>
<!-- Generator: Adobe Illustrator 26.4.1, SVG Export Plug-In . SVG Version: 6.00 Build 0)  -->
<svg version="1.1" id="Layer_1" xmlns="http://www.w3.org/2000/svg" xmlns:xlink="http://www.w3.org/1999/xlink" x="0px" y="0px"
	 viewBox="0 0 320 150" style="enable-background:new 0 0 320 150;" xml:space="preserve">
<style type="text/css">
	.st0_calendar{fill:#CCCCD1;}
	.st1_calendar{clip-path:url(#SVGID_00000001636871260619434950000016077709492713131934_);}
	.st2_calendar{fill:#FFFFFF;}
	.st3_calendar{fill:#002F48;}
	.st4_calendar{fill:#21C1DC;}
	.st5_calendar{fill:#0A8FAE;}
</style>
<g>
	<g>
		<path id="Vector_60_2_calendar" class="st0_calendar" d="M160,140c35.9,0,65-29.1,65-65s-29.1-65-65-65S95,39.1,95,75S124.1,140,160,140z"/>
	</g>
	<g>
		<g>
			<defs>
				<rect id="SVGID_1_calendar" x="127.67" y="44.62" width="64.66" height="60.76"/>
			</defs>
			<clipPath id="SVGID_00000098216973937584888510000001360659757966665916_">
				<use xlink:href="#SVGID_1_calendar"  style="overflow:visible;"/>
			</clipPath>
			<g style="clip-path:url(#SVGID_00000098216973937584888510000001360659757966665916_);">
				<g>
					<g id="icon_2_">
						<path id="Vector_38_2_calendar" class="st2_calendar" d="M127.67,63.79h64.66v36.96c0,1.22-0.49,2.4-1.35,3.26c-0.87,0.87-2.04,1.35-3.26,1.35
							h-55.43c-1.22,0-2.4-0.48-3.26-1.35c-0.86-0.87-1.35-2.04-1.35-3.26V63.79z"/>
						<path id="Vector_39_2_calendar" class="st3_calendar" d="M192.33,59.78h-64.66v2.59h64.66V59.78z"/>
						<path id="Vector_40_2_calendar" class="st3_calendar" d="M132.28,47.61h55.43c1.22,0,2.38,0.48,3.25,1.34c0.86,0.86,1.35,2.02,1.36,3.24v11.47
							h-64.66V52.18c0.01-1.22,0.5-2.38,1.36-3.24C129.9,48.09,131.07,47.61,132.28,47.61z"/>
						<path id="Vector_41_2_calendar" class="st4_calendar" d="M145.48,44.62h-5.94c-0.57,0-1.04,0.47-1.04,1.04v8.94c0,0.57,0.47,1.04,1.04,1.04
							h5.94c0.57,0,1.04-0.47,1.04-1.04v-8.94C146.52,45.08,146.06,44.62,145.48,44.62z"/>
						<path id="Vector_42_2_calendar" class="st4_calendar" d="M179.55,44.62h-5.94c-0.57,0-1.04,0.47-1.04,1.04v8.94c0,0.57,0.47,1.04,1.04,1.04
							h5.94c0.57,0,1.04-0.47,1.04-1.04v-8.94C180.59,45.08,180.12,44.62,179.55,44.62z"/>
						<path id="Vector_43_2_calendar" class="st5_calendar" d="M145.42,44.62c-0.29,2.13-1.05,4.16-2.24,5.95c-1.19,1.79-2.76,3.29-4.61,4.39
							c0.08,0.21,0.22,0.38,0.4,0.51c0.18,0.12,0.4,0.18,0.62,0.17h5.82c0.14,0.02,0.28,0,0.42-0.04c0.13-0.04,0.26-0.11,0.37-0.2
							c0.11-0.09,0.2-0.2,0.26-0.33c0.06-0.13,0.1-0.27,0.1-0.41V45.6c-0.01-0.14-0.04-0.28-0.1-0.41s-0.15-0.24-0.26-0.33
							c-0.11-0.09-0.24-0.16-0.37-0.2C145.71,44.62,145.57,44.6,145.42,44.62z"/>
						<path id="Vector_44_2_calendar" class="st5_calendar" d="M179.45,44.62c-0.29,2.12-1.06,4.15-2.24,5.93c-1.18,1.78-2.75,3.28-4.59,4.37
							c0.08,0.21,0.22,0.38,0.4,0.51c0.18,0.12,0.4,0.18,0.62,0.17h5.82c0.14,0.01,0.27,0,0.41-0.04c0.13-0.04,0.25-0.11,0.36-0.2
							c0.1-0.09,0.19-0.2,0.26-0.32c0.06-0.12,0.1-0.26,0.11-0.39V45.6c-0.01-0.14-0.04-0.28-0.11-0.41
							c-0.06-0.13-0.15-0.24-0.26-0.33c-0.11-0.09-0.23-0.16-0.37-0.2C179.74,44.62,179.59,44.6,179.45,44.62z"/>
						<path id="Vector_45_2_calendar" class="st4_calendar" d="M139.53,71.79h-2.76c-0.7,0-1.27,0.57-1.27,1.27v2.76c0,0.7,0.57,1.27,1.27,1.27h2.76
							c0.7,0,1.27-0.57,1.27-1.27v-2.76C140.79,72.35,140.23,71.79,139.53,71.79z"/>
						<path id="Vector_46_2_calendar" class="st4_calendar" d="M181.91,71.79h-2.76c-0.7,0-1.27,0.57-1.27,1.27v2.76c0,0.7,0.57,1.27,1.27,1.27h2.76
							c0.7,0,1.27-0.57,1.27-1.27v-2.76C183.18,72.35,182.61,71.79,181.91,71.79z"/>
						<path id="Vector_47_2_calendar" class="st4_calendar" d="M171.32,71.79h-2.76c-0.7,0-1.27,0.57-1.27,1.27v2.76c0,0.7,0.57,1.27,1.27,1.27h2.76
							c0.7,0,1.27-0.57,1.27-1.27v-2.76C172.59,72.35,172.02,71.79,171.32,71.79z"/>
						<path id="Vector_48_2_calendar" class="st4_calendar" d="M160.72,71.79h-2.76c-0.7,0-1.27,0.57-1.27,1.27v2.76c0,0.7,0.57,1.27,1.27,1.27h2.76
							c0.7,0,1.27-0.57,1.27-1.27v-2.76C161.98,72.35,161.42,71.79,160.72,71.79z"/>
						<path id="Vector_49_2_calendar" class="st4_calendar" d="M150.13,71.79h-2.76c-0.7,0-1.27,0.57-1.27,1.27v2.76c0,0.7,0.57,1.27,1.27,1.27h2.76
							c0.7,0,1.27-0.57,1.27-1.27v-2.76C151.4,72.35,150.83,71.79,150.13,71.79z"/>
						<path id="Vector_50_2_calendar" class="st4_calendar" d="M139.53,81.94h-2.76c-0.7,0-1.27,0.57-1.27,1.27v2.76c0,0.7,0.57,1.27,1.27,1.27h2.76
							c0.7,0,1.27-0.57,1.27-1.27V83.2C140.79,82.51,140.23,81.94,139.53,81.94z"/>
						<path id="Vector_51_2_calendar" class="st4_calendar" d="M181.91,81.94h-2.76c-0.7,0-1.27,0.57-1.27,1.27v2.76c0,0.7,0.57,1.27,1.27,1.27h2.76
							c0.7,0,1.27-0.57,1.27-1.27V83.2C183.18,82.51,182.61,81.94,181.91,81.94z"/>
						<path id="Vector_52_2_calendar" class="st4_calendar" d="M171.32,81.94h-2.76c-0.7,0-1.27,0.57-1.27,1.27v2.76c0,0.7,0.57,1.27,1.27,1.27h2.76
							c0.7,0,1.27-0.57,1.27-1.27V83.2C172.59,82.51,172.02,81.94,171.32,81.94z"/>
						<path id="Vector_53_2_calendar" class="st4_calendar" d="M160.72,81.94h-2.76c-0.7,0-1.27,0.57-1.27,1.27v2.76c0,0.7,0.57,1.27,1.27,1.27h2.76
							c0.7,0,1.27-0.57,1.27-1.27V83.2C161.98,82.51,161.42,81.94,160.72,81.94z"/>
						<path id="Vector_54_2_calendar" class="st4_calendar" d="M150.13,81.94h-2.76c-0.7,0-1.27,0.57-1.27,1.27v2.76c0,0.7,0.57,1.27,1.27,1.27h2.76
							c0.7,0,1.27-0.57,1.27-1.27V83.2C151.4,82.51,150.83,81.94,150.13,81.94z"/>
						<path id="Vector_55_2_calendar" class="st4_calendar" d="M139.53,92.09h-2.76c-0.7,0-1.27,0.57-1.27,1.27v2.76c0,0.7,0.57,1.27,1.27,1.27h2.76
							c0.7,0,1.27-0.57,1.27-1.27v-2.76C140.79,92.66,140.23,92.09,139.53,92.09z"/>
						<path id="Vector_56_2_calendar" class="st4_calendar" d="M181.91,92.09h-2.76c-0.7,0-1.27,0.57-1.27,1.27v2.76c0,0.7,0.57,1.27,1.27,1.27h2.76
							c0.7,0,1.27-0.57,1.27-1.27v-2.76C183.18,92.66,182.61,92.09,181.91,92.09z"/>
						<path id="Vector_57_2_calendar" class="st4_calendar" d="M171.32,92.09h-2.76c-0.7,0-1.27,0.57-1.27,1.27v2.76c0,0.7,0.57,1.27,1.27,1.27h2.76
							c0.7,0,1.27-0.57,1.27-1.27v-2.76C172.59,92.66,172.02,92.09,171.32,92.09z"/>
						<path id="Vector_58_2_calendar" class="st4_calendar" d="M160.72,92.09h-2.76c-0.7,0-1.27,0.57-1.27,1.27v2.76c0,0.7,0.57,1.27,1.27,1.27h2.76
							c0.7,0,1.27-0.57,1.27-1.27v-2.76C161.98,92.66,161.42,92.09,160.72,92.09z"/>
						<path id="Vector_59_2_calendar" class="st4_calendar" d="M150.13,92.09h-2.76c-0.7,0-1.27,0.57-1.27,1.27v2.76c0,0.7,0.57,1.27,1.27,1.27h2.76
							c0.7,0,1.27-0.57,1.27-1.27v-2.76C151.4,92.66,150.83,92.09,150.13,92.09z"/>
					</g>
				</g>
			</g>
		</g>
	</g>
</g>
</svg>
