<svg width="17" height="17" viewBox="0 0 17 17" fill="none" xmlns="http://www.w3.org/2000/svg">
<path d="M12.2346 5.44895C12.1722 5.37788 12.0825 5.33668 11.9879 5.33561H9.47461V4.39561C9.47461 4.20895 9.51461 3.99561 9.81461 3.99561H11.8146C11.9035 3.9994 11.9894 3.96262 12.0479 3.89561C12.1067 3.83465 12.1401 3.75361 12.1413 3.66895V1.00228C12.1413 0.818184 11.992 0.668945 11.8079 0.668945H8.92128C5.72128 0.668945 5.47461 3.40228 5.47461 4.23561V5.33561H3.80794C3.62385 5.33561 3.47461 5.48485 3.47461 5.66895V8.33561C3.47461 8.51971 3.62385 8.66895 3.80794 8.66895H5.47461V16.3356C5.47461 16.5197 5.62385 16.6689 5.80794 16.6689H9.14128C9.32537 16.6689 9.47461 16.5197 9.47461 16.3356V8.66895H11.7079C11.8798 8.66981 12.0241 8.53991 12.0413 8.36895L12.3213 5.70228C12.3291 5.60943 12.2976 5.51757 12.2346 5.44895Z" fill="white"/>
</svg>
