<?xml version="1.0" encoding="utf-8"?>
<!-- Generator: Adobe Illustrator 26.4.1, SVG Export Plug-In . SVG Version: 6.00 Build 0)  -->
<svg version="1.1" id="Layer_1" xmlns="http://www.w3.org/2000/svg" xmlns:xlink="http://www.w3.org/1999/xlink" x="0px" y="0px"
	 viewBox="0 0 320 150" style="enable-background:new 0 0 320 150;" xml:space="preserve">
<style type="text/css">
	.st0_lighthouse{fill:#CCCCD1;}
	.st1_lighthouse{fill:#002F48;}
	.st2_lighthouse{fill:#04A2C9;}
	.st3_lighthouse{fill:#21C1DC;}
	.st4_lighthouse{fill:#FFFFFF;}
</style>
<g>
	<g>
		<path id="Vector_60_2_lighthouse" class="st0_lighthouse" d="M160,140c35.9,0,65-29.1,65-65s-29.1-65-65-65S95,39.1,95,75S124.1,140,160,140z"/>
	</g>
</g>
<g>
	<path id="Vector_21_00000152976240861289261350000012003100305479368593_lighthouse" class="st1_lighthouse" d="M158.86,45.4v-4.87
		c0-0.3,0.13-0.59,0.34-0.8c0.21-0.21,0.5-0.33,0.8-0.33c0.3,0,0.59,0.12,0.81,0.34c0.21,0.22,0.34,0.51,0.34,0.81v4.87L158.86,45.4
		z"/>
	<path id="Vector_22_00000104666034565351728550000014097636740789945483_lighthouse" class="st2_lighthouse" d="M169.45,54.63
		c0.01-0.08,0.01-0.17,0-0.25c-0.07-2.22-0.92-4.35-2.42-6c-1.49-1.65-3.53-2.71-5.73-2.99h-2.33c-2.25,0.29-4.32,1.38-5.82,3.08
		c-1.5,1.7-2.33,3.89-2.33,6.15H169.45z"/>
	<path id="Vector_23_00000088115497428976320200000016872008352219727010_lighthouse" class="st2_lighthouse" d="M171.76,108.31V72.1h-23.29v36.21h5.82
		v-8.19c0-0.15,0.03-0.3,0.09-0.45c0.06-0.14,0.15-0.27,0.25-0.38c0.11-0.11,0.24-0.19,0.38-0.25c0.14-0.06,0.29-0.09,0.45-0.09
		h9.32c0.15,0,0.3,0.03,0.44,0.09c0.14,0.06,0.27,0.15,0.38,0.25c0.11,0.11,0.19,0.24,0.25,0.38s0.09,0.29,0.09,0.45v8.19H171.76z"
		/>
	<path id="Vector_24_00000130621104686981639000000016809014369694372742_lighthouse" class="st1_lighthouse" d="M171.76,108.31V81.14
		c-6.92,4.7-14.95,7.49-23.29,8.09v19.12L171.76,108.31z"/>
	<path id="Vector_25_00000119824675342499080220000000814571901167526048_lighthouse" class="st3_lighthouse" d="M125.87,59.6l17.47,5.82
		c0.12,0.02,0.25,0.02,0.37,0c0.28,0,0.55-0.1,0.76-0.28c0.21-0.18,0.35-0.43,0.4-0.7c0.04-0.27-0.01-0.56-0.15-0.79
		c-0.14-0.24-0.37-0.41-0.63-0.5l-17.47-5.82c-0.15-0.05-0.3-0.07-0.45-0.06c-0.15,0.01-0.3,0.05-0.44,0.12
		c-0.14,0.07-0.26,0.16-0.36,0.28c-0.1,0.12-0.17,0.25-0.22,0.4c-0.06,0.15-0.08,0.31-0.07,0.47c0.01,0.16,0.05,0.31,0.12,0.46
		c0.07,0.14,0.16,0.27,0.29,0.38C125.58,59.47,125.72,59.55,125.87,59.6z"/>
	<path id="Vector_26_00000065073710680213731460000012700944596346484386_lighthouse" class="st3_lighthouse" d="M144.81,70.93
		c-0.04-0.15-0.12-0.28-0.22-0.4c-0.1-0.12-0.22-0.21-0.36-0.28c-0.14-0.07-0.29-0.11-0.44-0.12c-0.15-0.01-0.31,0.01-0.45,0.06
		l-17.47,5.82c-0.26,0.09-0.49,0.26-0.63,0.5c-0.14,0.24-0.2,0.52-0.15,0.79c0.04,0.27,0.18,0.52,0.4,0.7
		c0.21,0.18,0.48,0.28,0.76,0.28c0.12,0.02,0.25,0.02,0.37,0l17.47-5.82c0.15-0.05,0.29-0.13,0.41-0.23
		c0.12-0.1,0.22-0.23,0.29-0.38c0.07-0.14,0.11-0.3,0.11-0.46C144.89,71.24,144.86,71.08,144.81,70.93z"/>
	<path id="Vector_27_00000099658374786142754980000009984870885010822784_lighthouse" class="st3_lighthouse" d="M130.89,66.57
		c-0.31,0-0.61,0.12-0.82,0.34c-0.22,0.22-0.34,0.51-0.34,0.82c0,0.31,0.12,0.61,0.34,0.82c0.22,0.22,0.51,0.34,0.82,0.34h6.99
		c0.31,0,0.6-0.12,0.82-0.34c0.22-0.22,0.34-0.51,0.34-0.82c0-0.31-0.12-0.61-0.34-0.82c-0.22-0.22-0.51-0.34-0.82-0.34H130.89z"/>
	<path id="Vector_28_00000107590574947643858070000011799682131727168667_lighthouse" class="st3_lighthouse" d="M176.31,65.48
		c0.12,0.02,0.25,0.02,0.37,0l17.47-5.82c0.29-0.1,0.53-0.31,0.67-0.59c0.14-0.28,0.16-0.59,0.07-0.89
		c-0.05-0.15-0.12-0.28-0.22-0.4c-0.1-0.12-0.22-0.21-0.36-0.28c-0.14-0.07-0.29-0.11-0.44-0.12c-0.15-0.01-0.31,0.01-0.45,0.06
		l-17.47,5.82c-0.26,0.09-0.49,0.26-0.63,0.5c-0.14,0.24-0.2,0.52-0.15,0.79c0.04,0.27,0.18,0.52,0.4,0.7
		c0.21,0.18,0.48,0.28,0.76,0.28V65.48z"/>
	<path id="Vector_29_00000064346961967480265850000003070897057065327757_lighthouse" class="st3_lighthouse" d="M194.14,76.02l-17.47-5.82
		c-0.15-0.05-0.3-0.07-0.45-0.06c-0.15,0.01-0.3,0.05-0.44,0.12c-0.14,0.07-0.26,0.16-0.36,0.28c-0.1,0.12-0.17,0.25-0.22,0.4
		c-0.09,0.29-0.07,0.61,0.07,0.89c0.14,0.28,0.38,0.49,0.67,0.59l17.47,5.82c0.12,0.02,0.25,0.02,0.37,0c0.28,0,0.55-0.1,0.76-0.28
		c0.21-0.18,0.35-0.43,0.4-0.7c0.04-0.27-0.01-0.56-0.15-0.79c-0.14-0.24-0.37-0.42-0.63-0.5V76.02z"/>
	<path id="Vector_30_00000139261524112011124390000016124291647563032982_lighthouse" class="st3_lighthouse" d="M182.13,66.57
		c-0.31,0-0.61,0.12-0.82,0.34c-0.22,0.22-0.34,0.51-0.34,0.82c0,0.31,0.12,0.61,0.34,0.82c0.22,0.22,0.51,0.34,0.82,0.34h6.99
		c0.31,0,0.6-0.12,0.82-0.34c0.22-0.22,0.34-0.51,0.34-0.82c0-0.31-0.12-0.61-0.34-0.82c-0.22-0.22-0.51-0.34-0.82-0.34H182.13z"/>
	<path id="Vector_31_00000026151463931304004750000014051047257417817493_" class="st4_lighthouse" d="M169.42,56.94h-18.57v12.81h18.57V56.94z
		"/>
	<path id="Vector_32_00000029749139276511352840000008278163015509573264_lighthouse" class="st1_lighthouse" d="M170.19,53.74h-20.14
		c-0.85,0-1.53,0.69-1.53,1.53v1.05c0,0.85,0.69,1.53,1.53,1.53h20.14c0.85,0,1.53-0.69,1.53-1.53v-1.05
		C171.72,54.43,171.04,53.74,170.19,53.74z"/>
	<path id="Vector_33_00000083066123636705529310000004316699139385999537_lighthouse" class="st1_lighthouse" d="M172.52,68.84h-24.8
		c-0.85,0-1.53,0.69-1.53,1.53v1.05c0,0.85,0.69,1.53,1.53,1.53h24.8c0.85,0,1.53-0.69,1.53-1.53v-1.05
		C174.05,69.53,173.37,68.84,172.52,68.84z"/>
	<path id="Vector_34_00000090286586384408736110000010781709834935099017_" class="st1_lighthouse" d="M179.27,106.49h-38.29
		c-0.85,0-1.53,0.69-1.53,1.53v1.05c0,0.85,0.69,1.53,1.53,1.53h38.29c0.85,0,1.53-0.69,1.53-1.53v-1.05
		C180.81,107.17,180.12,106.49,179.27,106.49z"/>
	<path id="Vector_35_00000082363521903849553530000009268772659294527374_lighthouse" class="st1_lighthouse" d="M166.54,47.92
		c-4.86,2.47-10.11,4.08-15.53,4.75c-0.14,0.64-0.21,1.29-0.21,1.94h18.65c0.01-0.09,0.01-0.17,0-0.25
		C169.38,51.91,168.33,49.59,166.54,47.92z"/>
	<path id="Vector_36_00000043457985255411534800000016090183305768642691_lighthouse" class="st2_lighthouse" d="M158.57,97.97h3.09
		c0.24,0,0.47,0.1,0.64,0.27c0.17,0.17,0.27,0.4,0.27,0.65v7.63h-4.89v-7.63c0-0.24,0.09-0.47,0.26-0.64
		C158.1,98.07,158.33,97.97,158.57,97.97z"/>
</g>
</svg>
