
<svg width="17" height="17" viewBox="0 0 17 17" fill="none" xmlns="http://www.w3.org/2000/svg">
<rect x="1.47461" y="6.33594" width="3.33333" height="9.33333" rx="0.5" fill="white"/>
<path d="M3.12794 5.00228C4.04105 5.00228 4.78128 4.25609 4.78128 3.33561C4.78128 2.41514 4.04105 1.66895 3.12794 1.66895C2.21483 1.66895 1.47461 2.41514 1.47461 3.33561C1.47461 4.25609 2.21483 5.00228 3.12794 5.00228Z" fill="white"/>
<path d="M12.474 15.6685H14.474C14.6581 15.6685 14.8073 15.5193 14.8073 15.3352V9.73521C14.8073 7.22188 13.3873 6.00188 11.4006 6.00188C10.6082 5.9729 9.84051 6.28046 9.28729 6.84854C9.21246 6.935 9.09172 6.96574 8.98465 6.92559C8.87758 6.88544 8.80682 6.78289 8.80729 6.66854C8.80729 6.48445 8.65805 6.33521 8.47396 6.33521H6.47396C6.28986 6.33521 6.14062 6.48445 6.14062 6.66854V15.3352C6.14062 15.5193 6.28986 15.6685 6.47396 15.6685H8.47396C8.65805 15.6685 8.80729 15.5193 8.80729 15.3352V10.3352C8.80729 9.41474 9.55348 8.66854 10.474 8.66854C11.3944 8.66854 12.1406 9.41474 12.1406 10.3352V15.3352C12.1406 15.5193 12.2899 15.6685 12.474 15.6685Z" fill="white"/>
</svg>
