<?xml version="1.0" encoding="utf-8"?>
<!-- Generator: Adobe Illustrator 26.4.1, SVG Export Plug-In . SVG Version: 6.00 Build 0)  -->
<svg version="1.1" id="Layer_1" xmlns="http://www.w3.org/2000/svg" xmlns:xlink="http://www.w3.org/1999/xlink" x="0px" y="0px"
	 viewBox="0 0 320 150" style="enable-background:new 0 0 320 150;" xml:space="preserve">
<style type="text/css">
	.st0_telescope{fill:#CCCCD1;}
	.st1_telescope{fill:#04A2C9;}
	.st2_telescope{fill:#002F48;}
	.st3_telescope{fill:#FFFFFF;}
	.st4_telescope{fill:#21C1DC;}
</style>
<g>
	<g>
		<path id="Vector_60_2_telescope" class="st0_telescope" d="M160,140c35.9,0,65-29.1,65-65s-29.1-65-65-65S95,39.1,95,75S124.1,140,160,140z"/>
	</g>
</g>
<g>
	<path class="st1_telescope" d="M157.04,72.08l-22.67,11.39c-1.67,0.84-3.71,0.17-4.54-1.51l-2.39-4.75c-0.84-1.67-0.17-3.71,1.51-4.54
		l22.67-11.39L157.04,72.08z"/>
	<path class="st2_telescope" d="M151.88,61.79c-3.98,8.89-10.78,16.25-19.27,20.92c1.35,0.33,2.81,0.23,4.14-0.44l20.29-10.19L151.88,61.79z"
		/>
	<path class="st1_telescope" d="M185.16,61.06l-25.45,12.79c-2.05,1.03-4.54,0.2-5.57-1.85l-4.26-8.49c-1.03-2.05-0.2-4.54,1.85-5.57
		l25.45-12.79L185.16,61.06z"/>
	<path class="st2_telescope" d="M177.17,45.15l-2.93,1.47C171,57.14,164,66,154.79,71.62c2.18,1.67,5.2,2.08,7.83,0.76l22.54-11.32
		L177.17,45.15z"/>
	<circle class="st2_telescope" cx="157.05" cy="75.39" r="8.47"/>
	<path class="st2_telescope" d="M153.96,108.87V79.86c0-0.95,0.77-1.73,1.73-1.73h2.72c0.95,0,1.73,0.77,1.73,1.73v29.01
		c0,0.95-0.77,1.73-1.73,1.73h-2.72C154.73,110.6,153.96,109.83,153.96,108.87z"/>
	<g>
		<path class="st2_telescope" d="M136.1,107.44l14.52-31.42c0.4-0.87,1.43-1.24,2.29-0.84l2.47,1.14c0.87,0.4,1.24,1.43,0.84,2.29
			l-14.52,31.42c-0.4,0.87-1.43,1.24-2.29,0.84l-2.47-1.14C136.07,109.33,135.7,108.3,136.1,107.44z"/>
		<path class="st2_telescope" d="M178,107.44l-14.52-31.42c-0.4-0.87-1.43-1.24-2.29-0.84l-2.47,1.14c-0.87,0.4-1.24,1.43-0.84,2.29
			l14.52,31.42c0.4,0.87,1.43,1.24,2.29,0.84l2.47-1.14C178.02,109.33,178.4,108.3,178,107.44z"/>
	</g>
	<path class="st3_telescope" d="M159.27,71.47c-0.66-0.37-1.41-0.6-2.22-0.6c-2.5,0-4.52,2.02-4.52,4.52c0,1.1,0.41,2.1,1.06,2.88
		c0.83,1,2.06,1.64,3.46,1.64c2.5,0,4.52-2.02,4.52-4.52C161.57,73.7,160.63,72.25,159.27,71.47z"/>
	<path class="st3_telescope" d="M191.86,62l-5.92,2.97c-2.22,1.12-4.93,0.22-6.04-2l-7.45-14.82c-1.12-2.22-0.22-4.93,2-6.04l5.92-2.97
		c0.73-0.37,1.62-0.07,1.99,0.66l10.16,20.22C192.89,60.75,192.59,61.64,191.86,62z"/>
	<path class="st4_telescope" d="M180.52,39.39c-0.4,0-0.8,0.08-1.18,0.27l-1.71,0.86c-3.97,1.99-5.57,6.83-3.58,10.79l4.27,8.5
		c1.99,3.97,6.83,5.57,10.79,3.58l1.71-0.86c0.38-0.19,0.69-0.47,0.93-0.79C186.06,55.63,182.08,47.93,180.52,39.39z"/>
	<path class="st2_telescope" d="M177.02,40.9c-3.51,2.17-4.86,6.66-2.98,10.42l4.27,8.5c1.87,3.73,6.25,5.33,10.07,3.85
		C182.58,57.47,178.54,49.62,177.02,40.9z"/>
</g>
</svg>
