
<svg width="17" height="17" viewBox="0 0 17 17" fill="none" xmlns="http://www.w3.org/2000/svg">
<path d="M15.6871 4.96264C15.7838 4.88223 15.827 4.75421 15.7988 4.63162C15.7707 4.50902 15.6759 4.41273 15.5537 4.38264L15.0271 4.24931C14.9301 4.22503 14.8491 4.15852 14.8065 4.0681C14.7639 3.97768 14.7641 3.8729 14.8071 3.78264L15.1004 3.18931C15.157 3.0719 15.1399 2.93228 15.0568 2.83191C14.9736 2.73155 14.8396 2.68886 14.7137 2.72264L13.3804 3.09598C13.2797 3.12535 13.171 3.10559 13.0871 3.04264C12.5101 2.6099 11.8083 2.37598 11.0871 2.37598C9.24611 2.37598 7.75372 3.86836 7.75372 5.70931V5.94931C7.75434 6.03408 7.69122 6.10581 7.60706 6.11598C5.73372 6.33598 3.94039 5.38264 2.00706 3.15598C1.92143 3.06154 1.79018 3.02294 1.66706 3.05598C1.55624 3.10691 1.48209 3.2143 1.47372 3.33598C1.2067 4.43287 1.31466 5.58759 1.78039 6.61598C1.80848 6.67158 1.80322 6.73821 1.76674 6.78871C1.73027 6.83922 1.66867 6.86516 1.60706 6.85598L0.860391 6.70931C0.752768 6.69201 0.643485 6.72842 0.567748 6.80681C0.49201 6.88521 0.459388 6.99568 0.480391 7.10264C0.596984 8.13902 1.17832 9.06621 2.06039 9.62264C2.11789 9.65049 2.15441 9.70876 2.15441 9.77264C2.15441 9.83653 2.11789 9.8948 2.06039 9.92264L1.70706 10.0626C1.6203 10.0974 1.55213 10.167 1.51917 10.2545C1.48621 10.342 1.49149 10.4393 1.53372 10.5226C1.93035 11.3905 2.72767 12.0084 3.66706 12.176C3.73297 12.1999 3.77686 12.2625 3.77686 12.3326C3.77686 12.4028 3.73297 12.4654 3.66706 12.4893C2.76063 12.8642 1.7879 13.0524 0.807057 13.0426C0.622963 13.0058 0.443876 13.1252 0.407057 13.3093C0.370238 13.4934 0.489629 13.6725 0.673724 13.7093C2.37209 14.5148 4.22118 14.9532 6.10039 14.996C7.75336 15.0212 9.37691 14.5573 10.7671 13.6626C13.0896 12.1123 14.4812 9.50173 14.4737 6.70931V6.12931C14.4745 6.03133 14.5184 5.93868 14.5937 5.87598L15.6871 4.96264Z" fill="white"/>
</svg>
