
<svg width="17" height="17" viewBox="0 0 17 17" fill="none" xmlns="http://www.w3.org/2000/svg">
<path fill-rule="evenodd" clip-rule="evenodd" d="M2.76729 3.00195H13.514C14.9646 3.00195 16.1406 4.17795 16.1406 5.62862V11.7086C16.1406 13.1593 14.9646 14.3353 13.514 14.3353H2.76729C1.31662 14.3353 0.140625 13.1593 0.140625 11.7086V5.62862C0.140625 4.17795 1.31662 3.00195 2.76729 3.00195ZM6.65396 11.5753L11.1673 8.66862V8.68862C11.2623 8.62722 11.3198 8.52179 11.3198 8.40862C11.3198 8.29546 11.2623 8.19002 11.1673 8.12862L6.65396 5.24196C6.55146 5.17619 6.42125 5.17156 6.31434 5.22988C6.20743 5.28819 6.14083 5.40017 6.14062 5.52196V11.2953C6.14083 11.4171 6.20743 11.5291 6.31434 11.5874C6.42125 11.6457 6.55146 11.6411 6.65396 11.5753Z" fill="white"/>
</svg>
